<svg xmlns="http://www.w3.org/2000/svg" viewBox="0 0 1200 900" role="img" aria-labelledby="title desc">
<title>Arc Controller Stand displaying a controller</title>
<desc>Warm minimal boutique product scene for VITAO: Arc Controller Stand displaying a controller.</desc>
<defs>
  <linearGradient id="bg" x1="0" y1="0" x2="1" y2="1"><stop offset="0" stop-color="#fffcf7"/><stop offset="0.58" stop-color="#e8dfd2"/><stop offset="1" stop-color="#d5c8b8"/></linearGradient>
  <filter id="shadow" x="-20%" y="-20%" width="140%" height="140%"><feDropShadow dx="0" dy="24" stdDeviation="28" flood-color="#4b4d34" flood-opacity="0.16"/></filter>
</defs>
<rect width="1200" height="900" rx="72" fill="url(#bg)"/>
<circle cx="1000" cy="148" r="96" fill="#f7f3ec" opacity="0.7"/>
<rect x="110" y="650" width="980" height="88" rx="44" fill="#cbbda9" opacity="0.25"/>
<g filter="url(#shadow)"><path d="M420 630c40-135 100-210 180-220 94-12 160 58 200 220" fill="none" stroke="#f7f3ec" stroke-width="82" stroke-linecap="round"/><path d="M390 430c70-54 350-54 420 0 36 28 54 130 8 168-48 40-96-24-146-24H528c-50 0-98 64-146 24-46-38-28-140 8-168z" fill="#1d1d1b" opacity="0.86"/><circle cx="505" cy="500" r="18" fill="#f7f3ec"/><circle cx="696" cy="486" r="16" fill="#d5c8b8"/><circle cx="738" cy="526" r="16" fill="#d5c8b8"/></g><text x="100" y="120" fill="#4b4d34" font-family="Inter, Arial, sans-serif" font-size="32" font-weight="700" letter-spacing="8">VITAO</text>
</svg>
