<svg xmlns="http://www.w3.org/2000/svg" viewBox="0 0 1200 900" role="img" aria-labelledby="title desc">
<title>VITAO collection arranged on a warm desk surface</title>
<desc>Warm minimal boutique product scene for VITAO: VITAO collection arranged on a warm desk surface.</desc>
<defs>
  <linearGradient id="bg" x1="0" y1="0" x2="1" y2="1"><stop offset="0" stop-color="#fffcf7"/><stop offset="0.58" stop-color="#e8dfd2"/><stop offset="1" stop-color="#d5c8b8"/></linearGradient>
  <filter id="shadow" x="-20%" y="-20%" width="140%" height="140%"><feDropShadow dx="0" dy="24" stdDeviation="28" flood-color="#4b4d34" flood-opacity="0.16"/></filter>
</defs>
<rect width="1200" height="900" rx="72" fill="url(#bg)"/>
<circle cx="1000" cy="148" r="96" fill="#f7f3ec" opacity="0.7"/>
<rect x="110" y="650" width="980" height="88" rx="44" fill="#cbbda9" opacity="0.25"/>
<g filter="url(#shadow)"><rect x="250" y="430" width="700" height="190" rx="54" fill="#f7f3ec" stroke="#b8ab97" stroke-width="8"/><path d="M310 512h580" stroke="#d5c8b8" stroke-width="16" stroke-linecap="round" stroke-dasharray="1 42"/><circle cx="430" cy="500" r="56" fill="#1d1d1b" opacity="0.86"/><circle cx="430" cy="500" r="34" fill="#e8dfd2"/><rect x="555" y="465" width="230" height="24" rx="12" fill="#4b4d34"/><circle cx="820" cy="520" r="32" fill="none" stroke="#b98f73" stroke-width="14"/><path d="M330 560l48 34 54-56" fill="none" stroke="#1d1d1b" stroke-width="18" stroke-linecap="round" stroke-linejoin="round"/></g><g filter="url(#shadow)"><path d="M448 330h304l-36 330H484z" fill="#f7f3ec" stroke="#b8ab97" stroke-width="8"/><path d="M500 370v245M560 360v270M620 360v270M680 370v245" stroke="#d5c8b8" stroke-width="16" stroke-linecap="round"/><path d="M520 330l-44-200M610 330l14-230M690 330l86-188" stroke="#4b4d34" stroke-width="18" stroke-linecap="round"/><path d="M760 252c52 42 98 30 112-18" fill="none" stroke="#1d1d1b" stroke-width="14" stroke-linecap="round"/></g><g filter="url(#shadow)"><path d="M300 510c120-90 480-90 600 0 20 110-60 170-300 170s-320-60-300-170z" fill="#f7f3ec" stroke="#b8ab97" stroke-width="8"/><path d="M390 520c92 48 328 48 420 0" fill="none" stroke="#d5c8b8" stroke-width="14" stroke-linecap="round"/><circle cx="530" cy="540" r="42" fill="none" stroke="#b98f73" stroke-width="14"/><path d="M650 535l54 48 66-74" fill="none" stroke="#1d1d1b" stroke-width="18" stroke-linecap="round" stroke-linejoin="round"/></g><text x="100" y="120" fill="#4b4d34" font-family="Inter, Arial, sans-serif" font-size="32" font-weight="700" letter-spacing="8">VITAO</text>
</svg>
